<svg version="1.1" viewBox="0.0 0.0 100.0 100.0" fill="none" stroke="none" stroke-linecap="square" stroke-miterlimit="10" xmlns:xlink="http://www.w3.org/1999/xlink" xmlns="http://www.w3.org/2000/svg"><clipPath id="p.0"><path d="m0 0l100.0 0l0 100.0l-100.0 0l0 -100.0z" clip-rule="nonzero"/></clipPath><g clip-path="url(#p.0)"><path fill="#000000" fill-opacity="0.0" d="m0 0l100.0 0l0 100.0l-100.0 0z" fill-rule="evenodd"/><path fill="#000000" fill-opacity="0.0" d="m12.414699 5.5564303l72.72441 0l0 72.72441l-72.72441 0z" fill-rule="evenodd"/><path stroke="#ffffff" stroke-width="1.0" stroke-linejoin="round" stroke-linecap="butt" d="m12.414699 5.5564303l72.72441 0l0 72.72441l-72.72441 0z" fill-rule="evenodd"/><path fill="#000000" fill-opacity="0.0" d="m20.0 15.509185l60.0 0l0 56.031494l-60.0 0z" fill-rule="evenodd"/><path fill="#ffffff" d="m34.5244 17.840553l-6.25 -0.953125l0 -4.000001l10.640625 0q2.890625 0 5.6875 -0.25q4.3125 -0.3125 8.15625 -0.3125q11.59375 0.078125 16.390625 4.328126q4.8125 4.234375 4.8125 12.796875q0 6.390625 -2.96875 11.109375q-2.953125 4.71875 -8.203125 7.203125q-5.234375 2.484375 -12.03125 2.484375q-2.3125 0 -4.71875 -0.109375q-2.40625 -0.125 -2.953125 -0.21875l0 17.609375l10.953125 0.875l0 3.921875l-26.15625 0l0 -3.921875l6.640625 -0.796875l0 -49.765625zm8.5625 27.6875q2.234375 0.390625 7.671875 0.390625q6.328125 0 10.28125 -3.828125q3.953125 -3.84375 3.953125 -12.5625q0 -6.890625 -3.4375 -9.890625q-3.4375 -3.0 -10.71875 -3.0q-2.5625 0 -5.4375 0.328125q-1.765625 0.15625 -2.3125 0.15625l0 28.40625z" fill-rule="nonzero"/><path fill="#000000" fill-opacity="0.0" d="m-6.4566927 74.062996l112.91339 0l0 20.377953l-112.91339 0z" fill-rule="evenodd"/><path fill="#ffffff" d="m5.5589323 85.14925q1.0625 0 1.671875 0.515625q0.609375 0.5 0.609375 1.390625q0 0.90625 -0.609375 1.421875q-0.609375 0.5 -1.671875 0.5l-1.515625 0l0 1.765625l-0.59375024 0l0 -5.59375l2.1093752 0zm-0.03125 3.3125q0.84375 0 1.28125 -0.359375q0.4375 -0.375 0.4375 -1.046875q0 -0.671875 -0.4375 -1.03125q-0.4375 -0.375 -1.28125 -0.375l-1.484375 0l0 2.8125l1.484375 0zm6.118927 2.328125q-0.828125 0 -1.515625 -0.375q-0.671875 -0.375 -1.046875 -1.015625q-0.375 -0.640625 -0.375 -1.453125q0 -0.8125 0.375 -1.453125q0.375 -0.65625 1.046875 -1.015625q0.6875 -0.375 1.515625 -0.375q0.828125 0 1.5 0.375q0.671875 0.359375 1.046875 1.015625q0.390625 0.640625 0.390625 1.453125q0 0.8125 -0.390625 1.46875q-0.375 0.640625 -1.046875 1.015625q-0.671875 0.359375 -1.5 0.359375zm0 -0.53125q0.671875 0 1.203125 -0.296875q0.53125 -0.296875 0.828125 -0.828125q0.3125 -0.53125 0.3125 -1.1875q0 -0.65625 -0.3125 -1.1875q-0.296875 -0.53125 -0.828125 -0.828125q-0.53125 -0.3125 -1.203125 -0.3125q-0.65625 0 -1.203125 0.3125q-0.546875 0.296875 -0.859375 0.828125q-0.296875 0.53125 -0.296875 1.1875q0 0.65625 0.296875 1.1875q0.3125 0.53125 0.859375 0.828125q0.546875 0.296875 1.203125 0.296875zm5.993163 -2.140625l-1.140625 1.15625l0 1.46875l-0.59374905 0l0 -5.59375l0.59374905 0l0 3.375l3.296875 -3.375l0.671875 0l-2.421875 2.53125l2.59375 3.0625l-0.703125 0l-2.296875 -2.625zm7.9223022 2.109375l0 0.515625l-3.96875 0l0 -5.59375l3.84375 0l0 0.5l-3.25 0l0 2.0l2.90625 0l0 0.5l-2.90625 0l0 2.078125l3.375 0zm5.2113037 0.515625l-1.28125 -1.796875q-0.21875 0.015625 -0.4375 0.015625l-1.515625 0l0 1.78125l-0.59375 0l0 -5.59375l2.109375 0q1.0625 0 1.671875 0.515625q0.609375 0.5 0.609375 1.390625q0 0.65625 -0.34375 1.109375q-0.328125 0.453125 -0.9375 0.65625l1.375 1.921875l-0.65625 0zm-1.75 -2.28125q0.84375 0 1.28125 -0.359375q0.4375 -0.375 0.4375 -1.046875q0 -0.671875 -0.4375 -1.03125q-0.4375 -0.375 -1.28125 -0.375l-1.484375 0l0 2.8125l1.484375 0zm13.489275 -3.3125l-1.875 5.59375l-0.625 0l-1.640625 -4.78125l-1.65625 4.78125l-0.609375 0l-1.890625 -5.59375l0.609375 0l1.609375 4.8125l1.671875 -4.8125l0.5625 0l1.640625 4.828125l1.640625 -4.828125l0.5625 0zm1.2003784 0l0.59375 0l0 5.59375l-0.59375 0l0 -5.59375zm3.5097198 0.5l-1.96875 0l0 -0.5l4.53125 0l0 0.5l-1.96875 0l0 5.09375l-0.59375 0l0 -5.09375zm8.185684 -0.5l0 5.59375l-0.578125 0l0 -2.578125l-3.515625 0l0 2.578125l-0.59375 0l0 -5.59375l0.59375 0l0 2.484375l3.515625 0l0 -2.484375l0.578125 0zm4.5061493 0.5l0 2.203125l2.90625 0l0 0.515625l-2.90625 0l0 2.375l-0.59375 0l0 -5.59375l3.84375 0l0 0.5l-3.25 0zm8.2983055 5.09375l-1.28125 -1.796875q-0.21875 0.015625 -0.4375 0.015625l-1.515625 0l0 1.78125l-0.59375 0l0 -5.59375l2.109375 0q1.0625 0 1.671875 0.515625q0.609375 0.5 0.609375 1.390625q0 0.65625 -0.34375 1.109375q-0.328125 0.453125 -0.9375 0.65625l1.375 1.921875l-0.65625 0zm-1.75 -2.28125q0.84375 0 1.28125 -0.359375q0.4375 -0.375 0.4375 -1.046875q0 -0.671875 -0.4375 -1.03125q-0.4375 -0.375 -1.28125 -0.375l-1.484375 0l0 2.8125l1.484375 0zm3.7057953 -3.3125l0.59375 0l0 5.59375l-0.59375 0l0 -5.59375zm6.38472 5.078125l0 0.515625l-3.96875 0l0 -5.59375l3.84375 0l0 0.5l-3.25 0l0 2.0l2.90625 0l0 0.5l-2.90625 0l0 2.078125l3.375 0zm6.0706787 -5.078125l0 5.59375l-0.484375 0l-3.609375 -4.546875l0 4.546875l-0.59375 0l0 -5.59375l0.5 0l3.609375 4.53125l0 -4.53125l0.578125 0zm1.8164215 0l2.28125 0q0.890625 0 1.5625 0.359375q0.6875 0.34375 1.0625 0.984375q0.375 0.640625 0.375 1.453125q0 0.8125 -0.375 1.453125q-0.375 0.625 -1.0625 0.984375q-0.671875 0.359375 -1.5625 0.359375l-2.28125 0l0 -5.59375zm2.25 5.078125q0.734375 0 1.28125 -0.28125q0.5625 -0.296875 0.859375 -0.8125q0.3125 -0.515625 0.3125 -1.1875q0 -0.671875 -0.3125 -1.1875q-0.296875 -0.515625 -0.859375 -0.8125q-0.546875 -0.296875 -1.28125 -0.296875l-1.65625 0l0 4.578125l1.65625 0zm5.904785 0.5625q-0.625 0 -1.203125 -0.203125q-0.5625 -0.203125 -0.875 -0.53125l0.234375 -0.453125q0.296875 0.3125 0.796875 0.5q0.515625 0.1875 1.046875 0.1875q0.75 0 1.125 -0.28125q0.375 -0.28125 0.375 -0.71875q0 -0.328125 -0.203125 -0.53125q-0.203125 -0.203125 -0.5 -0.3125q-0.296875 -0.109375 -0.8125 -0.234375q-0.640625 -0.15625 -1.015625 -0.296875q-0.375 -0.15625 -0.640625 -0.453125q-0.265625 -0.3125 -0.265625 -0.828125q0 -0.421875 0.21875 -0.765625q0.21875 -0.359375 0.6875 -0.5625q0.46875 -0.203125 1.15625 -0.203125q0.484375 0 0.9375 0.125q0.453125 0.125 0.796875 0.359375l-0.203125 0.46875q-0.34375 -0.21875 -0.75 -0.328125q-0.40625 -0.125 -0.78125 -0.125q-0.734375 0 -1.109375 0.28125q-0.375 0.28125 -0.375 0.734375q0 0.328125 0.203125 0.53125q0.203125 0.203125 0.515625 0.3125q0.3125 0.109375 0.828125 0.234375q0.609375 0.15625 0.984375 0.3125q0.390625 0.140625 0.65625 0.453125q0.265625 0.296875 0.265625 0.796875q0 0.421875 -0.234375 0.78125q-0.21875 0.34375 -0.703125 0.546875q-0.46875 0.203125 -1.15625 0.203125z" fill-rule="nonzero"/></g></svg>